
        <svg xmlns="http://www.w3.org/2000/svg" xmlns:xlink="http://www.w3.org/1999/xlink" version="1.1" width="3161.9433198380566" height="925.1578260691151" viewBox="0 0 3161.9433198380566 925.1578260691151">
			
			<g transform="scale(8.097165991902832) translate(10, 10)">
				<defs id="SvgjsDefs6318"/><g id="SvgjsG6319" featureKey="UqkkrJ-0" transform="matrix(0.9722222222222223,0,0,0.9722222222222223,-4.861111111111112,-1.5837504598829497)" fill="#fff"><path xmlns="http://www.w3.org/2000/svg" d="M16.278,45.251c-0.227-3.52,0.184-7.083,1.624-10.166c0.716-1.548,1.786-2.85,2.79-4.167c1.041-1.304,2.18-2.556,3.61-3.617  l-0.054-0.167c-0.943,0.074-1.838,0.434-2.647,0.897c-0.817,0.462-1.554,1.052-2.224,1.71c-1.356,1.322-2.163,3.084-2.782,4.812  c-1.246,3.498-1.255,7.255-0.491,10.719L16.278,45.251z M23.01,48.18l0.175-0.028c-0.296-3.348-0.149-6.733,0.839-9.835  c0.488-1.556,1.313-2.938,2.034-4.345c0.75-1.407,1.617-2.759,2.673-4.106l-0.095-0.15c-1.695,0.606-3.039,1.889-4.077,3.326  c-1.057,1.454-1.539,3.219-1.902,4.92C21.931,41.396,22.181,44.902,23.01,48.18z M26.044,77.121  c-1.803,1.318-3.485,2.814-5.332,4.111c-3.687,2.594-7.621,4.863-11.714,6.854l0.069,0.16c4.312-1.492,8.471-3.468,12.415-5.832  c1.964-1.189,3.977-2.361,5.685-3.936c1.694-1.564,3.314-3.305,4.342-5.427l-0.141-0.108C29.604,74.429,27.839,75.773,26.044,77.121  z M37.629,38.317c0.985,3.102,1.136,6.487,0.838,9.835l0.174,0.028c0.831-3.278,1.082-6.784,0.353-10.219  c-0.363-1.701-0.843-3.464-1.899-4.92c-1.038-1.436-2.382-2.72-4.078-3.326l-0.093,0.15c1.054,1.347,1.922,2.7,2.672,4.106  C36.318,35.38,37.142,36.761,37.629,38.317z M40.962,30.918c1.002,1.317,2.071,2.617,2.789,4.167  c1.44,3.083,1.851,6.646,1.623,10.166l0.175,0.023c0.764-3.465,0.756-7.223-0.492-10.719c-0.62-1.728-1.425-3.49-2.781-4.812  c-0.67-0.657-1.408-1.249-2.225-1.71c-0.808-0.464-1.703-0.823-2.646-0.898l-0.054,0.167C38.78,28.362,39.92,29.614,40.962,30.918z   M67.977,30.545c-0.116,5.578,4.056,7.875,6.936,8.858c2.228-1.641,3.353-5.905,2.24-8.858c1.184,1.968,2.097,0,2.097,0  s2.081,7.777-1.476,9.892c2.859,1.035,9.045,1.411,13.941,0c-1.641,4.642-10.497,5.856-14.563,3.56  c-2.829,6.245-7.09,8.529-13.323,3.832c5.579,2.849,7.22-1.864,8.952-5.8C68.939,40.387,66.126,32.841,67.977,30.545z   M20.785,24.766c3.121,0,5.886-0.519,7.097-3.461c1.211-2.941,2.358-12.476,2.358-12.476h1.172c0,0,1.145,9.533,2.357,12.476  c1.212,2.943,3.977,3.461,7.098,3.461c3.809,0,11.079,2.943,11.079,11.252c0,8.311-5.717,16.464-21.119,16.464  c-15.401,0-21.121-8.153-21.121-16.464C9.707,27.709,16.977,24.766,20.785,24.766z M5,90.697  c4.032-4.952,4.032-30.654,28.438-19.748C36.703,97.437,14.58,90.04,5,90.697z M34.784,69.616  c-8.954-8.372,1.185-11.556,4.186-17.135c6.737,14.113-2.644,13.795-3.695,16.745c12.054-4.788,11.826,6.778,14.325,11.11  C41.542,78.798,33.951,82.468,34.784,69.616z M71.318,83.037c-13.076,0-23.678-10.502-23.678-23.458  c0-11.321,8.097-20.765,18.866-22.971c0.813,2.25,2.26,4.656,4.16,6.093c-1.171,2.639-2.144,4.229-3.763,4.331  c-1.466,0.093-3.524-0.362-4.957-0.723c0.681,4.019,5.759,5.685,7.954,5.685c3.236,0,5.938-1.965,8.047-5.847  c1.272,0.422,2.762,0.646,4.339,0.646c2.56,0,5.341-0.597,7.512-1.861C93.044,48.948,95,54.034,95,59.581  C94.997,72.535,84.396,83.037,71.318,83.037z M38.475,73.01c-0.606-0.783-1.173-1.586-1.668-2.525l-0.116,0.019  c-0.137,1.117,0.271,2.216,0.809,3.164c0.546,0.967,1.413,1.692,2.274,2.344c0.869,0.653,1.828,1.171,2.827,1.556  c1.007,0.365,2.059,0.583,3.098,0.672l0.022-0.115c-2.023-0.491-3.88-1.471-5.342-2.835C39.641,74.603,39.092,73.77,38.475,73.01z   M37.232,65.514c0.517-0.962,0.737-2.043,0.995-3.086c0.51-2.094,0.789-4.228,0.801-6.363l-0.117-0.008  c-0.161,1.044-0.397,2.077-0.67,3.095c-0.257,1.02-0.559,2.026-0.916,3.009c-0.348,0.986-0.837,1.909-1.171,2.887  c-0.338,0.984-0.703,1.943-0.995,3.009l0.098,0.066C36.102,67.394,36.729,66.479,37.232,65.514z"/></g><g id="SvgjsG6320" featureKey="0kuQ8p-0" transform="matrix(4.733141080658495,0,0,4.733141080658495,104.30814670709631,-28.39884648395097)" fill="#fff"><path d="M3.84 6 l1.6 9.94 l0.04 0 l1.48 -9.94 l3.06 0 l0 14 l-2.08 0 l0 -10.04 l-0.04 0 l-1.48 10.04 l-2.08 0 l-1.6 -9.9 l-0.04 0 l0 9.9 l-1.92 0 l0 -14 l3.06 0 z M16.5 6 l2.24 14 l-2.22 0 l-0.38 -2.54 l-2.7 0 l-0.38 2.54 l-2.02 0 l2.24 -14 l3.22 0 z M14.76 8.48 l-1.04 7.08 l2.12 0 l-1.04 -7.08 l-0.04 0 z M21.96 14 l0 6 l-2.2 0 l0 -14 l2.2 0 l0 6 l2.5 0 l0 -6 l2.24 0 l0 14 l-2.24 0 l0 -6 l-2.5 0 z M33.18 6 l2.24 14 l-2.22 0 l-0.38 -2.54 l-2.7 0 l-0.38 2.54 l-2.02 0 l2.24 -14 l3.22 0 z M31.44 8.48 l-1.04 7.08 l2.12 0 l-1.04 -7.08 l-0.04 0 z M43.28 20 l-2.24 0 c-0.12 -0.36 -0.2 -0.58 -0.2 -1.72 l0 -2.2 c0 -1.3 -0.44 -1.78 -1.44 -1.78 l-0.76 0 l0 5.7 l-2.2 0 l0 -14 l3.32 0 c2.28 0 3.26 1.06 3.26 3.22 l0 1.1 c0 1.44 -0.46 2.36 -1.44 2.82 l0 0.04 c1.1 0.46 1.46 1.5 1.46 2.96 l0 2.16 c0 0.68 0.02 1.18 0.24 1.7 z M39.7 8 l-1.06 0 l0 4.3 l0.86 0 c0.82 0 1.32 -0.36 1.32 -1.48 l0 -1.38 c0 -1 -0.34 -1.44 -1.12 -1.44 z M49.36 6 l2.24 14 l-2.22 0 l-0.38 -2.54 l-2.7 0 l-0.38 2.54 l-2.02 0 l2.24 -14 l3.22 0 z M47.62 8.48 l-1.04 7.08 l2.12 0 l-1.04 -7.08 l-0.04 0 z M52.02 20 l0 -2 c0.24 0.02 0.52 0.02 0.76 0.02 c0.7 0 1.26 -0.26 1.26 -1.34 l0 -10.68 l2.2 0 l0 10.52 c0 2.8 -1.5 3.52 -3.16 3.52 c-0.4 0 -0.7 0 -1.06 -0.04 z"/></g><g id="SvgjsG6321" featureKey="Nh6iBa-0" transform="matrix(1.274929432742907,0,0,1.274929432742907,107.7195157922874,68.5544137420438)" fill="#fff"><path d="M2.44 6 l1.66 11.42 l0.04 0 l1.66 -11.42 l2.02 0 l-2.16 14 l-3.28 0 l-2.16 -14 l2.22 0 z M25.3765 8 l0 3.9 l3.02 0 l0 2 l-3.02 0 l0 4.1 l3.8 0 l0 2 l-6 0 l0 -14 l6 0 l0 2 l-3.8 0 z M48.173 14.2 l0 -2 l3.08 0 l0 4.44 c0 2.24 -1.12 3.52 -3.28 3.52 s-3.28 -1.28 -3.28 -3.52 l0 -7.28 c0 -2.24 1.12 -3.52 3.28 -3.52 s3.28 1.28 3.28 3.52 l0 1.36 l-2.08 0 l0 -1.5 c0 -1 -0.44 -1.38 -1.14 -1.38 s-1.14 0.38 -1.14 1.38 l0 7.56 c0 1 0.44 1.36 1.14 1.36 s1.14 -0.36 1.14 -1.36 l0 -2.58 l-1 0 z M69.20949999999999 8 l0 3.9 l3.02 0 l0 2 l-3.02 0 l0 4.1 l3.8 0 l0 2 l-6 0 l0 -14 l6 0 l0 2 l-3.8 0 z M88.06599999999999 8 l0 -2 l6.8 0 l0 2 l-2.3 0 l0 12 l-2.2 0 l0 -12 l-2.3 0 z M114.28249999999997 6 l2.24 14 l-2.22 0 l-0.38 -2.54 l-2.7 0 l-0.38 2.54 l-2.02 0 l2.24 -14 l3.22 0 z M112.54249999999998 8.48 l-1.04 7.08 l2.12 0 l-1.04 -7.08 l-0.04 0 z M135.19899999999998 6 c2.28 0 3.26 1.06 3.26 3.22 l0 0.5 c0 1.44 -0.44 2.34 -1.42 2.8 l0 0.04 c1.18 0.46 1.64 1.5 1.64 2.98 l0 1.14 c0 2.16 -1.14 3.32 -3.34 3.32 l-3.46 0 l0 -14 l3.32 0 z M135.05899999999997 13.7 l-0.98 0 l0 4.3 l1.26 0 c0.74 0 1.14 -0.34 1.14 -1.38 l0 -1.22 c0 -1.3 -0.42 -1.7 -1.42 -1.7 z M135.13899999999998 8 l-1.06 0 l0 3.7 l0.86 0 c0.82 0 1.32 -0.36 1.32 -1.48 l0 -0.78 c0 -1 -0.34 -1.44 -1.12 -1.44 z M154.3355 20 l0 -14 l2.2 0 l0 12 l3.62 0 l0 2 l-5.82 0 z M177.652 8 l0 3.9 l3.02 0 l0 2 l-3.02 0 l0 4.1 l3.8 0 l0 2 l-6 0 l0 -14 l6 0 l0 2 l-3.8 0 z M196.8685 9.36 c0 -2.24 1.1 -3.52 3.24 -3.52 s3.24 1.28 3.24 3.52 l0 0.44 l-2.08 0 l0 -0.58 c0 -1 -0.4 -1.38 -1.1 -1.38 s-1.1 0.38 -1.1 1.38 c0 1.02 0.44 1.78 1.88 3.04 c1.84 1.62 2.42 2.78 2.42 4.38 c0 2.24 -1.12 3.52 -3.28 3.52 s-3.28 -1.28 -3.28 -3.52 l0 -0.86 l2.08 0 l0 1 c0 1 0.44 1.36 1.14 1.36 s1.14 -0.36 1.14 -1.36 c0 -1.02 -0.44 -1.78 -1.88 -3.04 c-1.84 -1.62 -2.42 -2.78 -2.42 -4.38 z"/></g>
			</g>
		</svg>
	